# This file uses centimeters as units for non-parametric coordinates.

mtllib RockRoof_1.mtl
g default
v -158.522911 175.052170 52.087379
v -143.872406 178.643941 50.135590
v -131.372406 178.779099 50.000431
v -118.872406 178.779530 50.000000
v -106.464360 176.463048 52.224319
v -93.635061 179.432347 49.956478
v -81.372406 178.779530 50.000000
v -69.046028 178.779530 49.882904
v -56.372406 178.779530 50.000000
v -156.381328 185.770724 50.008720
v -143.872406 185.779530 50.000000
v -131.372406 185.779530 50.000000
v -118.872406 185.779530 50.000000
v -106.426758 185.124881 50.070332
v -94.111312 185.263958 50.000000
v -81.372406 185.779530 50.000000
v -68.872406 185.779530 50.000000
v -56.372406 185.779530 50.000000
v -157.923462 184.869139 37.171394
v -143.872406 185.779530 37.500000
v -131.372406 185.779530 37.500000
v -118.872406 185.779530 37.500000
v -106.372406 185.779530 37.500000
v -93.872406 185.779530 37.500000
v -81.372406 185.779530 37.500000
v -68.872406 185.779530 37.500000
v -56.372406 185.779530 37.500000
v -156.372406 185.779530 25.000000
v -143.872406 185.779530 25.000000
v -131.372406 185.779530 25.000000
v -118.872406 185.779530 25.000000
v -106.372406 185.779530 25.000000
v -93.872406 185.779530 25.000000
v -81.372406 185.779530 25.000000
v -68.872406 185.779530 25.000000
v -56.372406 185.779530 25.000000
v -156.401069 185.740063 12.500001
v -143.872406 185.779530 12.500000
v -131.372406 185.779530 12.500000
v -118.872406 185.779530 12.500000
v -106.372406 185.779530 12.500000
v -93.872406 185.779530 12.500000
v -81.372406 185.779530 12.500000
v -68.872406 185.779530 12.500000
v -56.372406 185.779530 12.500000
v -156.372406 185.779530 0.000000
v -143.872406 185.779530 0.000000
v -131.372406 185.779530 0.000000
v -118.872406 185.779530 0.000000
v -106.372406 185.779530 0.000000
v -93.872406 185.779530 0.000000
v -81.372406 185.779530 0.000000
v -68.872406 185.779530 0.000000
v -56.364666 185.765708 0.001552
v -156.372406 185.779530 -12.500000
v -143.872406 185.779530 -12.500000
v -131.372406 185.779530 -12.500000
v -118.872406 185.779530 -12.500000
v -106.372406 185.779530 -12.500000
v -93.872406 185.779530 -12.500000
v -81.372406 185.779530 -12.500000
v -68.872406 185.779530 -12.500000
v -56.359070 185.755715 -12.500000
v -156.372406 185.779530 -25.000000
v -143.872406 185.779530 -25.000000
v -131.372406 185.779530 -25.000000
v -118.872406 185.779530 -25.000000
v -106.372406 185.779530 -25.000000
v -93.872406 185.779530 -25.000000
v -81.372406 185.779530 -25.000000
v -68.872406 185.779530 -25.000000
v -56.372406 185.779530 -25.000000
v -156.372406 185.779530 -37.500000
v -143.872406 185.779530 -37.500000
v -131.372406 185.779530 -37.500000
v -118.872406 185.779530 -37.500000
v -106.372406 185.779530 -37.500000
v -93.872406 185.779530 -37.500000
v -81.372406 185.779530 -37.500000
v -68.872406 185.779530 -37.500000
v -56.372406 185.779530 -37.500000
v -156.406051 185.741571 -50.028225
v -143.872406 185.779530 -50.000000
v -131.372406 185.779530 -50.000000
v -118.872406 185.779371 -50.000088
v -106.372406 185.779530 -50.000000
v -93.872406 185.779530 -50.000000
v -81.372406 185.764602 -50.008381
v -68.872406 185.779530 -50.000000
v -56.372406 185.779530 -50.000000
v -159.187099 174.975164 -52.313343
v -143.872516 177.594952 -50.738220
v -131.346489 178.315997 -50.210739
v -118.872379 177.627222 -50.643478
v -106.367501 178.703159 -50.011536
v -93.872406 177.397289 -51.371010
v -81.372406 173.722100 -52.854321
v -68.872406 177.991267 -50.792439
v -56.372406 178.779530 -50.000000
v -156.372406 178.779530 -37.500000
v -143.959976 168.455169 -39.694897
v -130.779508 173.356359 -38.734749
v -118.608588 175.306468 -38.152412
v -105.728141 178.037240 -37.793880
v -93.873377 178.791156 -37.500343
v -81.375967 178.762822 -37.502155
v -68.872406 173.803186 -38.280392
v -56.372406 178.779530 -37.500000
v -156.964485 178.125482 -25.001167
v -145.062900 168.199321 -24.764797
v -129.040685 171.789663 -28.120667
v -117.245230 166.344157 -25.877863
v -106.371722 178.776395 -25.000635
v -93.892379 178.868959 -24.981722
v -81.748075 177.330371 -25.462223
v -68.872406 172.101442 -25.000000
v -56.372406 178.779530 -25.000000
v -156.461670 178.660965 -12.499455
v -144.249584 174.262802 -11.799953
v -131.221037 170.248737 -11.735865
v -118.351938 171.721852 -10.903380
v -104.601233 170.606518 -12.974387
v -93.931740 176.795194 -12.677554
v -81.889780 167.592326 -12.232480
v -68.388290 176.143350 -11.798409
v -54.348259 175.145802 -12.492390
v -156.372627 178.779163 0.000000
v -144.481609 170.008345 0.005488
v -131.372406 177.043296 0.000000
v -118.865832 178.680400 0.000287
v -111.265743 172.979632 0.422687
v -93.885708 176.458843 -0.298764
v -81.368349 178.678660 0.003615
v -68.871002 178.776714 0.000313
v -52.585422 171.976014 0.224045
v -159.240413 174.156642 12.504675
v -144.464435 176.410572 12.864415
v -131.374956 172.541542 12.063887
v -118.775351 178.053335 12.498594
v -106.370044 178.297629 12.501756
v -92.761658 171.478976 19.013765
v -79.531398 175.120197 12.483183
v -68.724289 177.320663 12.479349
v -53.771137 174.646565 12.945930
v -156.372406 178.779530 25.000000
v -144.563755 173.953504 24.996141
v -131.395483 174.457790 25.162066
v -118.509097 175.735637 24.709995
v -106.776150 176.061353 24.892515
v -93.419991 178.558046 24.877066
v -81.013481 178.779529 24.968740
v -68.953716 178.377194 24.845947
v -56.372406 178.779530 25.000000
v -162.161659 175.217606 36.258804
v -143.872169 178.253502 37.520847
v -131.252248 171.144914 38.822166
v -118.946320 174.438343 37.584389
v -106.372406 169.030120 37.553841
v -93.615410 178.940014 37.453220
v -80.775146 177.058728 37.062042
v -69.179481 168.954460 37.545971
v -56.372406 178.779530 37.500000
vt 0.375000 0.000000
vt 0.406250 0.000000
vt 0.437500 0.000000
vt 0.468750 0.000000
vt 0.500000 0.000000
vt 0.531250 0.000000
vt 0.562500 0.000000
vt 0.593750 0.000000
vt 0.625000 0.000000
vt 0.375000 0.250000
vt 0.406250 0.250000
vt 0.437500 0.250000
vt 0.468750 0.250000
vt 0.500000 0.250000
vt 0.531250 0.250000
vt 0.562500 0.250000
vt 0.593750 0.250000
vt 0.625000 0.250000
vt 0.375000 0.281250
vt 0.406250 0.281250
vt 0.437500 0.281250
vt 0.468750 0.281250
vt 0.500000 0.281250
vt 0.531250 0.281250
vt 0.562500 0.281250
vt 0.593750 0.281250
vt 0.625000 0.281250
vt 0.375000 0.312500
vt 0.406250 0.312500
vt 0.437500 0.312500
vt 0.468750 0.312500
vt 0.500000 0.312500
vt 0.531250 0.312500
vt 0.562500 0.312500
vt 0.593750 0.312500
vt 0.625000 0.312500
vt 0.375000 0.343750
vt 0.406250 0.343750
vt 0.437500 0.343750
vt 0.468750 0.343750
vt 0.500000 0.343750
vt 0.531250 0.343750
vt 0.562500 0.343750
vt 0.593750 0.343750
vt 0.625000 0.343750
vt 0.375000 0.375000
vt 0.406250 0.375000
vt 0.437500 0.375000
vt 0.468750 0.375000
vt 0.500000 0.375000
vt 0.531250 0.375000
vt 0.562500 0.375000
vt 0.593750 0.375000
vt 0.625000 0.375000
vt 0.375000 0.406250
vt 0.406250 0.406250
vt 0.437500 0.406250
vt 0.468750 0.406250
vt 0.500000 0.406250
vt 0.531250 0.406250
vt 0.562500 0.406250
vt 0.593750 0.406250
vt 0.625000 0.406250
vt 0.375000 0.437500
vt 0.406250 0.437500
vt 0.437500 0.437500
vt 0.468750 0.437500
vt 0.500000 0.437500
vt 0.531250 0.437500
vt 0.562500 0.437500
vt 0.593750 0.437500
vt 0.625000 0.437500
vt 0.375000 0.468750
vt 0.406250 0.468750
vt 0.437500 0.468750
vt 0.468750 0.468750
vt 0.500000 0.468750
vt 0.531250 0.468750
vt 0.562500 0.468750
vt 0.593750 0.468750
vt 0.625000 0.468750
vt 0.375000 0.500000
vt 0.406250 0.500000
vt 0.437500 0.500000
vt 0.468750 0.500000
vt 0.500000 0.500000
vt 0.531250 0.500000
vt 0.562500 0.500000
vt 0.593750 0.500000
vt 0.625000 0.500000
vt 0.375000 0.750000
vt 0.406250 0.750000
vt 0.437500 0.750000
vt 0.468750 0.750000
vt 0.500000 0.750000
vt 0.531250 0.750000
vt 0.562500 0.750000
vt 0.593750 0.750000
vt 0.625000 0.750000
vt 0.375000 0.781250
vt 0.406250 0.781250
vt 0.437500 0.781250
vt 0.468750 0.781250
vt 0.500000 0.781250
vt 0.531250 0.781250
vt 0.562500 0.781250
vt 0.593750 0.781250
vt 0.625000 0.781250
vt 0.375000 0.812500
vt 0.406250 0.812500
vt 0.437500 0.812500
vt 0.468750 0.812500
vt 0.500000 0.812500
vt 0.531250 0.812500
vt 0.562500 0.812500
vt 0.593750 0.812500
vt 0.625000 0.812500
vt 0.375000 0.843750
vt 0.406250 0.843750
vt 0.437500 0.843750
vt 0.468750 0.843750
vt 0.500000 0.843750
vt 0.531250 0.843750
vt 0.562500 0.843750
vt 0.593750 0.843750
vt 0.625000 0.843750
vt 0.375000 0.875000
vt 0.406250 0.875000
vt 0.437500 0.875000
vt 0.468750 0.875000
vt 0.500000 0.875000
vt 0.531250 0.875000
vt 0.562500 0.875000
vt 0.593750 0.875000
vt 0.625000 0.875000
vt 0.375000 0.906250
vt 0.406250 0.906250
vt 0.437500 0.906250
vt 0.468750 0.906250
vt 0.500000 0.906250
vt 0.531250 0.906250
vt 0.562500 0.906250
vt 0.593750 0.906250
vt 0.625000 0.906250
vt 0.375000 0.937500
vt 0.406250 0.937500
vt 0.437500 0.937500
vt 0.468750 0.937500
vt 0.500000 0.937500
vt 0.531250 0.937500
vt 0.562500 0.937500
vt 0.593750 0.937500
vt 0.625000 0.937500
vt 0.375000 0.968750
vt 0.406250 0.968750
vt 0.437500 0.968750
vt 0.468750 0.968750
vt 0.500000 0.968750
vt 0.531250 0.968750
vt 0.562500 0.968750
vt 0.593750 0.968750
vt 0.625000 0.968750
vt 0.375000 1.000000
vt 0.406250 1.000000
vt 0.437500 1.000000
vt 0.468750 1.000000
vt 0.500000 1.000000
vt 0.531250 1.000000
vt 0.562500 1.000000
vt 0.593750 1.000000
vt 0.625000 1.000000
vt 0.875000 0.000000
vt 0.843750 0.000000
vt 0.812500 0.000000
vt 0.781250 0.000000
vt 0.750000 0.000000
vt 0.718750 0.000000
vt 0.687500 0.000000
vt 0.656250 0.000000
vt 0.875000 0.250000
vt 0.843750 0.250000
vt 0.812500 0.250000
vt 0.781250 0.250000
vt 0.750000 0.250000
vt 0.718750 0.250000
vt 0.687500 0.250000
vt 0.656250 0.250000
vt 0.125000 0.000000
vt 0.156250 0.000000
vt 0.187500 0.000000
vt 0.218750 0.000000
vt 0.250000 0.000000
vt 0.281250 0.000000
vt 0.312500 0.000000
vt 0.343750 0.000000
vt 0.125000 0.250000
vt 0.156250 0.250000
vt 0.187500 0.250000
vt 0.218750 0.250000
vt 0.250000 0.250000
vt 0.281250 0.250000
vt 0.312500 0.250000
vt 0.343750 0.250000
vn 0.056171 0.116243 0.991631
vn 0.036547 0.075066 0.996509
vn 0.034707 0.071206 0.996858
vn 0.056171 0.116243 0.991631
vn 0.002708 0.004866 0.999985
vn 0.002699 0.004850 0.999985
vn -0.041847 0.075991 0.996230
vn -0.039169 0.071132 0.996698
vn -0.004263 0.141115 0.989984
vn -0.003632 0.141157 0.989981
vn 0.038925 0.077060 0.996266
vn 0.040156 0.079496 0.996026
vn 0.001664 -0.006082 0.999980
vn 0.001651 -0.006072 0.999980
vn 0.000074 -0.008365 0.999965
vn -0.000074 -0.008363 0.999965
vn -0.004651 -0.008306 0.999955
vn -0.004651 -0.008306 0.999955
vn -0.034166 0.998856 -0.033463
vn -0.017726 0.999692 -0.017362
vn -0.017747 0.999843 -0.000171
vn -0.034441 0.999407 0.000636
vn 0.000000 1.000000 0.000000
vn 0.000000 1.000000 0.000000
vn 0.013110 0.999828 0.013110
vn 0.006545 0.999957 0.006545
vn 0.010416 0.999286 0.036317
vn 0.005167 0.999821 0.018175
vn -0.012885 0.999352 0.033598
vn -0.006554 0.999840 0.016653
vn -0.010261 0.999895 0.010261
vn -0.005143 0.999974 0.005143
vn 0.000000 1.000000 0.000000
vn 0.000000 1.000000 0.000000
vn 0.000000 1.000000 0.000000
vn 0.000000 1.000000 0.000000
vn -0.009380 0.999919 0.008601
vn -0.019155 0.999660 0.017675
vn 0.000000 1.000000 0.000000
vn 0.000000 1.000000 0.000000
vn 0.000000 1.000000 0.000000
vn 0.000000 1.000000 0.000000
vn 0.000000 1.000000 0.000000
vn 0.000000 1.000000 0.000000
vn 0.000000 1.000000 0.000000
vn -0.000789 1.000000 0.000000
vn -0.001577 0.999999 -0.000000
vn 0.000000 1.000000 0.000000
vn 0.000000 1.000000 0.000000
vn 0.000000 1.000000 0.000000
vn 0.000000 1.000000 0.000000
vn 0.000000 1.000000 0.000000
vn 0.000138 1.000000 -0.000138
vn 0.000276 1.000000 -0.000276
vn -0.000395 1.000000 0.000395
vn -0.000789 0.999999 0.000789
vn 0.000000 1.000000 0.000000
vn 0.000000 1.000000 0.000000
vn 0.000000 1.000000 0.000000
vn 0.000000 1.000000 0.000000
vn 0.000000 1.000000 0.000000
vn 0.000514 1.000000 -0.000238
vn 0.001029 0.999999 -0.000476
vn 0.000000 1.000000 0.000000
vn 0.000000 1.000000 0.000000
vn 0.000000 1.000000 0.000000
vn 0.000000 1.000000 0.000000
vn 0.000000 1.000000 0.000000
vn 0.000000 1.000000 0.000000
vn 0.000000 1.000000 0.000000
vn 0.000614 1.000000 0.000138
vn 0.001228 0.999999 0.000276
vn 0.000000 1.000000 0.000000
vn 0.000000 1.000000 0.000000
vn 0.000000 1.000000 0.000000
vn 0.000000 1.000000 0.000000
vn 0.000000 1.000000 0.000000
vn 0.000000 1.000000 0.000000
vn 0.000000 1.000000 0.000000
vn 0.000238 1.000000 0.000238
vn 0.000476 1.000000 0.000476
vn -0.000379 1.000000 -0.000379
vn -0.000759 0.999999 -0.000759
vn 0.000002 1.000000 -0.000002
vn 0.000000 1.000000 -0.000003
vn -0.000002 1.000000 -0.000002
vn 0.000149 1.000000 -0.000149
vn 0.000000 1.000000 -0.000299
vn -0.000149 1.000000 -0.000149
vn 0.000000 1.000000 0.000000
vn -0.000759 0.999999 -0.000759
vn -0.001515 0.999998 -0.001515
vn 0.000003 1.000000 -0.000003
vn 0.000000 1.000000 -0.000006
vn -0.000003 1.000000 -0.000003
vn 0.000299 1.000000 -0.000299
vn 0.000000 1.000000 -0.000597
vn -0.000299 1.000000 -0.000299
vn 0.000000 1.000000 0.000000
vn 0.042417 0.151327 -0.987573
vn 0.032569 0.112656 -0.993100
vn 0.033399 0.115914 -0.992698
vn 0.042417 0.151327 -0.987573
vn 0.001826 0.057590 -0.998339
vn 0.001763 0.057580 -0.998339
vn 0.003563 0.048853 -0.998800
vn 0.003356 0.048915 -0.998797
vn -0.013366 0.066224 -0.997715
vn -0.013593 0.066367 -0.997703
vn -0.037557 0.154049 -0.987349
vn -0.036282 0.160927 -0.986299
vn 0.010300 0.191514 -0.981436
vn 0.009501 0.191735 -0.981401
vn 0.041862 0.126816 -0.991043
vn 0.043042 0.134120 -0.990030
vn 0.029951 0.053485 -0.998119
vn 0.029951 0.053485 -0.998119
vn -0.267418 -0.948894 -0.167594
vn -0.035911 -0.933329 -0.357222
vn -0.124454 -0.969005 -0.213402
vn -0.495390 -0.861585 -0.110724
vn 0.139834 -0.895509 -0.422504
vn 0.140469 -0.938931 -0.314129
vn 0.101751 -0.972600 -0.209035
vn 0.187626 -0.940454 -0.283449
vn 0.067105 -0.996522 -0.049413
vn 0.192097 -0.976771 -0.094959
vn -0.085642 -0.986880 0.136872
vn -0.050009 -0.996714 0.063714
vn -0.083416 -0.988268 0.127938
vn -0.159568 -0.986916 0.023120
vn 0.094440 -0.993719 -0.060036
vn 0.065497 -0.994636 -0.080065
vn 0.231356 -0.959511 -0.160663
vn 0.337267 -0.935341 -0.106713
vn -0.255000 -0.964743 0.065166
vn -0.587062 -0.806037 0.075248
vn 0.011692 -0.997892 -0.063834
vn 0.175435 -0.974287 -0.141379
vn 0.325682 -0.925164 -0.194943
vn -0.056727 -0.972864 -0.224318
vn -0.194835 -0.958638 -0.207493
vn 0.104292 -0.988870 -0.106107
vn 0.319235 -0.947111 -0.032712
vn -0.238857 -0.966442 0.094532
vn -0.497704 -0.865009 0.063641
vn -0.002824 -0.976380 0.216040
vn 0.005616 -0.976540 0.215261
vn 0.266014 -0.963610 -0.026295
vn -0.022104 -0.997107 -0.072722
vn -0.062323 -0.995909 0.065434
vn 0.085535 -0.992505 0.087276
vn -0.048720 -0.998789 -0.006910
vn -0.128934 -0.991508 0.016965
vn -0.357904 -0.932155 -0.054697
vn 0.157399 -0.977723 0.138863
vn -0.006138 -0.976774 0.214185
vn -0.097307 -0.979544 0.176140
vn 0.032274 -0.997509 0.062722
vn 0.091618 -0.991632 0.090956
vn -0.053107 -0.993755 0.098135
vn -0.271407 -0.962358 0.014305
vn -0.092092 -0.994620 0.047444
vn -0.171129 -0.982857 0.068612
vn 0.132460 -0.990407 -0.039349
vn 0.095409 -0.993962 -0.054185
vn -0.120478 -0.991688 0.045163
vn 0.036121 -0.991344 0.126225
vn 0.143381 -0.988856 -0.040083
vn -0.077018 -0.995340 0.058015
vn -0.209547 -0.972577 0.100916
vn -0.133938 -0.990413 0.033803
vn -0.076572 -0.995627 0.053511
vn 0.009822 -0.999047 -0.042522
vn 0.065368 -0.983168 -0.170612
vn 0.042531 -0.986771 -0.156445
vn 0.134086 -0.987463 0.083297
vn -0.025412 -0.998496 0.048590
vn 0.017477 -0.994663 -0.101683
vn 0.138339 -0.988479 -0.061411
vn -0.062507 -0.995212 0.075139
vn 0.094495 -0.995520 -0.003200
vn -0.047849 -0.984951 0.166077
vn -0.061624 -0.992462 0.105931
vn 0.107457 -0.993036 0.048295
vn 0.216153 -0.976161 0.019686
vn -0.213718 -0.976870 0.007042
vn 0.028320 -0.999537 0.011128
vn 0.366984 -0.930191 0.008214
vn 0.018022 -0.993518 0.112237
vn 0.196870 -0.980275 -0.017429
vn -0.065690 -0.919876 0.386668
vn -0.109734 -0.900523 0.420734
vn 0.092768 -0.935950 0.339695
vn 0.232988 -0.953817 0.189606
vn -0.204176 -0.948239 0.243218
vn 0.027279 -0.921245 0.388025
vn 0.336872 -0.876153 0.344781
vn 1.000000 0.000000 0.000000
vn 1.000000 0.000000 0.000000
vn 1.000000 0.000000 0.000000
vn 1.000000 0.000000 0.000000
vn 0.996943 0.067953 -0.038559
vn 0.997339 0.063401 -0.035976
vn 0.980175 0.192419 -0.047239
vn 0.982001 0.182288 -0.049444
vn 0.970756 0.239921 -0.008477
vn 0.970831 0.239572 -0.009599
vn 0.976018 0.214053 0.039636
vn 0.977367 0.206972 0.043770
vn 0.994930 0.087752 0.049141
vn 0.995656 0.081233 0.045490
vn 1.000000 0.000000 0.000000
vn 1.000000 0.000000 0.000000
vn 1.000000 0.000000 0.000000
vn 1.000000 0.000000 0.000000
vn -0.986166 0.143753 0.082533
vn -0.993942 0.102288 0.040199
vn -0.994352 0.099385 0.037245
vn -0.986166 0.143753 0.082533
vn -0.999063 0.043244 -0.001599
vn -0.999064 0.043235 -0.001663
vn -0.999568 0.026999 0.011628
vn -0.999578 0.026670 0.011500
vn -0.994039 0.095807 -0.052040
vn -0.994880 0.089029 -0.047827
vn -0.988528 0.151041 0.000021
vn -0.988528 0.151041 -0.000018
vn -0.977354 0.200354 -0.068105
vn -0.977443 0.200145 -0.067428
vn -0.956929 0.290071 0.012060
vn -0.957137 0.289543 0.007324
vn -0.939017 0.303363 0.161921
vn -0.939017 0.303363 0.161921
s 1
g pCube2
usemtl anisotropic1SG
f 1/1/1 2/2/2 11/11/3 10/10/4
f 2/2/2 3/3/5 12/12/6 11/11/3
f 3/3/5 4/4/7 13/13/8 12/12/6
f 4/4/7 5/5/9 14/14/10 13/13/8
f 5/5/9 6/6/11 15/15/12 14/14/10
f 6/6/11 7/7/13 16/16/14 15/15/12
f 7/7/13 8/8/15 17/17/16 16/16/14
f 8/8/15 9/9/17 18/18/18 17/17/16
s 2
f 10/10/19 11/11/20 20/20/21 19/19/22
f 11/11/20 12/12/23 21/21/24 20/20/21
f 12/12/23 13/13/25 22/22/26 21/21/24
f 13/13/25 14/14/27 23/23/28 22/22/26
f 14/14/27 15/15/29 24/24/30 23/23/28
f 15/15/29 16/16/31 25/25/32 24/24/30
f 16/16/31 17/17/33 26/26/34 25/25/32
f 17/17/33 18/18/35 27/27/36 26/26/34
f 19/19/22 20/20/21 29/29/37 28/28/38
f 20/20/21 21/21/24 30/30/39 29/29/37
f 21/21/24 22/22/26 31/31/40 30/30/39
f 22/22/26 23/23/28 32/32/41 31/31/40
f 23/23/28 24/24/30 33/33/42 32/32/41
f 24/24/30 25/25/32 34/34/43 33/33/42
f 25/25/32 26/26/34 35/35/44 34/34/43
f 26/26/34 27/27/36 36/36/45 35/35/44
f 28/28/38 29/29/37 38/38/46 37/37/47
f 29/29/37 30/30/39 39/39/48 38/38/46
f 30/30/39 31/31/40 40/40/49 39/39/48
f 31/31/40 32/32/41 41/41/50 40/40/49
f 32/32/41 33/33/42 42/42/51 41/41/50
f 33/33/42 34/34/43 43/43/52 42/42/51
f 34/34/43 35/35/44 44/44/53 43/43/52
f 35/35/44 36/36/45 45/45/54 44/44/53
f 37/37/47 38/38/46 47/47/55 46/46/56
f 38/38/46 39/39/48 48/48/57 47/47/55
f 39/39/48 40/40/49 49/49/58 48/48/57
f 40/40/49 41/41/50 50/50/59 49/49/58
f 41/41/50 42/42/51 51/51/60 50/50/59
f 42/42/51 43/43/52 52/52/61 51/51/60
f 43/43/52 44/44/53 53/53/62 52/52/61
f 44/44/53 45/45/54 54/54/63 53/53/62
f 46/46/56 47/47/55 56/56/64 55/55/65
f 47/47/55 48/48/57 57/57/66 56/56/64
f 48/48/57 49/49/58 58/58/67 57/57/66
f 49/49/58 50/50/59 59/59/68 58/58/67
f 50/50/59 51/51/60 60/60/69 59/59/68
f 51/51/60 52/52/61 61/61/70 60/60/69
f 52/52/61 53/53/62 62/62/71 61/61/70
f 53/53/62 54/54/63 63/63/72 62/62/71
f 55/55/65 56/56/64 65/65/73 64/64/74
f 56/56/64 57/57/66 66/66/75 65/65/73
f 57/57/66 58/58/67 67/67/76 66/66/75
f 58/58/67 59/59/68 68/68/77 67/67/76
f 59/59/68 60/60/69 69/69/78 68/68/77
f 60/60/69 61/61/70 70/70/79 69/69/78
f 61/61/70 62/62/71 71/71/80 70/70/79
f 62/62/71 63/63/72 72/72/81 71/71/80
f 64/64/74 65/65/73 74/74/82 73/73/83
f 65/65/73 66/66/75 75/75/84 74/74/82
f 66/66/75 67/67/76 76/76/85 75/75/84
f 67/67/76 68/68/77 77/77/86 76/76/85
f 68/68/77 69/69/78 78/78/87 77/77/86
f 69/69/78 70/70/79 79/79/88 78/78/87
f 70/70/79 71/71/80 80/80/89 79/79/88
f 71/71/80 72/72/81 81/81/90 80/80/89
f 73/73/83 74/74/82 83/83/91 82/82/92
f 74/74/82 75/75/84 84/84/93 83/83/91
f 75/75/84 76/76/85 85/85/94 84/84/93
f 76/76/85 77/77/86 86/86/95 85/85/94
f 77/77/86 78/78/87 87/87/96 86/86/95
f 78/78/87 79/79/88 88/88/97 87/87/96
f 79/79/88 80/80/89 89/89/98 88/88/97
f 80/80/89 81/81/90 90/90/99 89/89/98
s 3
f 82/82/100 83/83/101 92/92/102 91/91/103
f 83/83/101 84/84/104 93/93/105 92/92/102
f 84/84/104 85/85/106 94/94/107 93/93/105
f 85/85/106 86/86/108 95/95/109 94/94/107
f 86/86/108 87/87/110 96/96/111 95/95/109
f 87/87/110 88/88/112 97/97/113 96/96/111
f 88/88/112 89/89/114 98/98/115 97/97/113
f 89/89/114 90/90/116 99/99/117 98/98/115
s 4
f 91/91/118 92/92/119 101/101/120 100/100/121
f 92/92/119 93/93/122 102/102/123 101/101/120
f 93/93/122 94/94/124 103/103/125 102/102/123
f 94/94/124 95/95/126 104/104/127 103/103/125
f 95/95/126 96/96/128 105/105/129 104/104/127
f 96/96/128 97/97/130 106/106/131 105/105/129
f 97/97/130 98/98/132 107/107/133 106/106/131
f 98/98/132 99/99/134 108/108/135 107/107/133
f 100/100/121 101/101/120 110/110/136 109/109/137
f 101/101/120 102/102/123 111/111/138 110/110/136
f 102/102/123 103/103/125 112/112/139 111/111/138
f 103/103/125 104/104/127 113/113/140 112/112/139
f 104/104/127 105/105/129 114/114/141 113/113/140
f 105/105/129 106/106/131 115/115/142 114/114/141
f 106/106/131 107/107/133 116/116/143 115/115/142
f 107/107/133 108/108/135 117/117/144 116/116/143
f 109/109/137 110/110/136 119/119/145 118/118/146
f 110/110/136 111/111/138 120/120/147 119/119/145
f 111/111/138 112/112/139 121/121/148 120/120/147
f 112/112/139 113/113/140 122/122/149 121/121/148
f 113/113/140 114/114/141 123/123/150 122/122/149
f 114/114/141 115/115/142 124/124/151 123/123/150
f 115/115/142 116/116/143 125/125/152 124/124/151
f 116/116/143 117/117/144 126/126/153 125/125/152
f 118/118/146 119/119/145 128/128/154 127/127/155
f 119/119/145 120/120/147 129/129/156 128/128/154
f 120/120/147 121/121/148 130/130/157 129/129/156
f 121/121/148 122/122/149 131/131/158 130/130/157
f 122/122/149 123/123/150 132/132/159 131/131/158
f 123/123/150 124/124/151 133/133/160 132/132/159
f 124/124/151 125/125/152 134/134/161 133/133/160
f 125/125/152 126/126/153 135/135/162 134/134/161
f 127/127/155 128/128/154 137/137/163 136/136/164
f 128/128/154 129/129/156 138/138/165 137/137/163
f 129/129/156 130/130/157 139/139/166 138/138/165
f 130/130/157 131/131/158 140/140/167 139/139/166
f 131/131/158 132/132/159 141/141/168 140/140/167
f 132/132/159 133/133/160 142/142/169 141/141/168
f 133/133/160 134/134/161 143/143/170 142/142/169
f 134/134/161 135/135/162 144/144/171 143/143/170
f 136/136/164 137/137/163 146/146/172 145/145/173
f 137/137/163 138/138/165 147/147/174 146/146/172
f 138/138/165 139/139/166 148/148/175 147/147/174
f 139/139/166 140/140/167 149/149/176 148/148/175
f 140/140/167 141/141/168 150/150/177 149/149/176
f 141/141/168 142/142/169 151/151/178 150/150/177
f 142/142/169 143/143/170 152/152/179 151/151/178
f 143/143/170 144/144/171 153/153/180 152/152/179
f 145/145/173 146/146/172 155/155/181 154/154/182
f 146/146/172 147/147/174 156/156/183 155/155/181
f 147/147/174 148/148/175 157/157/184 156/156/183
f 148/148/175 149/149/176 158/158/185 157/157/184
f 149/149/176 150/150/177 159/159/186 158/158/185
f 150/150/177 151/151/178 160/160/187 159/159/186
f 151/151/178 152/152/179 161/161/188 160/160/187
f 152/152/179 153/153/180 162/162/189 161/161/188
f 154/154/182 155/155/181 2/164/190 1/163/191
f 155/155/181 156/156/183 3/165/192 2/164/190
f 156/156/183 157/157/184 4/166/193 3/165/192
f 157/157/184 158/158/185 5/167/194 4/166/193
f 158/158/185 159/159/186 6/168/195 5/167/194
f 159/159/186 160/160/187 7/169/196 6/168/195
f 160/160/187 161/161/188 8/170/197 7/169/196
f 161/161/188 162/162/189 9/171/198 8/170/197
s 5
f 108/173/199 99/172/200 90/180/201 81/181/202
f 117/174/203 108/173/199 81/181/202 72/182/204
f 126/175/205 117/174/203 72/182/204 63/183/206
f 135/176/207 126/175/205 63/183/206 54/184/208
f 144/177/209 135/176/207 54/184/208 45/185/210
f 153/178/211 144/177/209 45/185/210 36/186/212
f 162/179/213 153/178/211 36/186/212 27/187/214
f 9/9/215 162/179/213 27/187/214 18/18/216
s 6
f 91/188/217 100/189/218 73/197/219 82/196/220
f 100/189/218 109/190/221 64/198/222 73/197/219
f 109/190/221 118/191/223 55/199/224 64/198/222
f 118/191/223 127/192/225 46/200/226 55/199/224
f 127/192/225 136/193/227 37/201/228 46/200/226
f 136/193/227 145/194/229 28/202/230 37/201/228
f 145/194/229 154/195/231 19/203/232 28/202/230
f 154/195/231 1/1/233 10/10/234 19/203/232
