# This file uses centimeters as units for non-parametric coordinates.

mtllib RockRoof_2.mtl
g default
v 52.087379 175.052170 52.150505
v 50.135590 178.643941 37.500000
v 50.000431 178.779099 25.000000
v 50.000000 178.779530 12.500000
v 52.258541 176.372011 0.000000
v 50.000000 178.779530 -12.500000
v 50.000000 178.779530 -25.000000
v 49.882904 178.779530 -37.326378
v 50.000000 178.779530 -50.000000
v 50.008720 185.770724 50.008923
v 50.000000 185.779530 37.500000
v 50.000000 185.779530 25.000000
v 50.000000 185.779530 12.500000
v 50.000000 185.779530 0.000000
v 50.000000 185.779530 -12.500000
v 50.000000 185.779530 -25.000000
v 50.000000 185.779530 -37.500000
v 50.000000 185.779530 -50.000000
v 37.171394 184.869139 51.551056
v 37.500000 185.779530 37.500000
v 37.500000 185.779530 25.000000
v 37.500000 185.779530 12.500000
v 37.500000 185.779530 0.000000
v 37.500000 185.779530 -12.500000
v 37.500000 185.779530 -25.000000
v 37.500000 185.779530 -37.500000
v 37.500000 185.779530 -50.000000
v 25.000000 185.779530 50.000000
v 25.000000 185.779530 37.500000
v 25.000000 185.779530 25.000000
v 25.000000 185.779530 12.500000
v 25.000000 185.779530 0.000000
v 25.000000 185.779530 -12.500000
v 25.000000 185.779530 -25.000000
v 25.000000 185.779530 -37.500000
v 25.000000 185.779530 -50.000000
v 12.500001 185.740063 50.028664
v 12.500000 185.779530 37.500000
v 12.500000 185.779530 25.000000
v 12.500000 185.779530 12.500000
v 12.500000 185.779530 0.000000
v 12.500000 185.779530 -12.500000
v 12.500000 185.779530 -25.000000
v 12.500000 185.779530 -37.500000
v 12.500000 185.779530 -50.000000
v 0.000000 185.779530 50.000000
v 0.000000 185.779530 37.500000
v 0.000000 185.779530 25.000000
v 0.000000 185.779530 12.500000
v 0.000000 185.779530 0.000000
v 0.000000 185.779530 -12.500000
v 0.000000 185.779530 -25.000000
v 0.000000 185.779530 -37.500000
v 0.001552 185.765708 -50.007740
v -12.500000 185.779530 50.000000
v -12.500000 185.779530 37.500000
v -12.500000 185.779530 25.000000
v -12.500000 185.779530 12.500000
v -12.500000 185.779530 0.000000
v -12.500000 185.779530 -12.500000
v -12.500000 185.779530 -25.000000
v -12.500000 185.779530 -37.500000
v -12.500000 185.755715 -50.013336
v -25.000000 185.779530 50.000000
v -25.000000 185.779530 37.500000
v -25.000000 185.779530 25.000000
v -25.000000 185.779530 12.500000
v -25.000000 185.779530 0.000000
v -25.000000 185.779530 -12.500000
v -25.000000 185.779530 -25.000000
v -25.000000 185.779530 -37.500000
v -25.000000 185.779530 -50.000000
v -37.500000 185.779530 50.000000
v -37.500000 185.779530 37.500000
v -37.500000 185.779530 25.000000
v -37.500000 185.779530 12.500000
v -37.500000 185.779530 0.000000
v -37.500000 185.779530 -12.500000
v -37.500000 185.779530 -25.000000
v -37.500000 185.779530 -37.500000
v -37.500000 185.779530 -50.000000
v -50.028225 185.741571 50.033646
v -50.000000 185.779530 37.500000
v -50.000000 185.779530 25.000000
v -50.000088 185.779371 12.500000
v -50.000000 185.779530 0.000000
v -50.000000 185.779530 -12.500000
v -50.008381 185.764602 -25.000000
v -50.000000 185.779530 -37.500000
v -50.000000 185.779530 -50.000000
v -52.313343 174.975164 52.814693
v -50.738220 177.594952 37.500111
v -50.210739 178.315997 24.974083
v -50.643478 177.627222 12.499973
v -50.011536 178.703159 -0.004904
v -51.371010 177.397289 -12.500000
v -52.854321 173.722100 -25.000000
v -50.792439 177.991267 -37.500000
v -50.000000 178.779530 -50.000000
v -37.500000 178.779530 50.000000
v -39.694897 168.455169 37.587570
v -38.734749 173.356359 24.407103
v -38.152412 175.306468 12.236182
v -37.578522 178.089860 -0.049914
v -37.500000 178.779530 -12.500000
v -37.502155 178.762822 -24.996439
v -38.280392 173.803186 -37.500000
v -37.500000 178.779530 -50.000000
v -25.001167 178.125482 50.592079
v -25.315094 171.747323 38.098106
v -25.038933 172.578918 24.979395
v -25.000000 172.911104 12.500000
v -25.000000 178.779530 0.000000
v -25.000000 178.779530 -12.500000
v -25.052317 178.430552 -24.918230
v -25.000000 172.101442 -37.500000
v -25.000000 178.779530 -50.000000
v -12.500001 178.719129 50.054726
v -11.809927 174.880553 37.774780
v -12.603446 176.869753 25.001110
v -10.903380 171.721852 11.979532
v -12.496085 176.941109 -0.003243
v -12.500000 178.779530 -12.500000
v -12.500000 174.223445 -25.000000
v -11.798409 176.143350 -37.984116
v -12.492390 175.145802 -52.024147
v 0.000000 178.779163 50.000221
v 0.005488 170.008345 38.109203
v 0.000000 177.043296 25.000000
v 0.000287 178.680400 12.493426
v -0.079797 176.514979 0.126593
v -0.292622 176.487675 -12.487272
v 0.000000 178.703562 -25.000000
v 0.000313 178.776714 -37.501404
v 0.224045 171.976014 -53.786983
v 12.504675 174.156642 52.868008
v 12.864415 176.410572 38.092030
v 12.063887 172.541542 25.002550
v 12.499694 178.690045 12.495770
v 12.500000 178.289208 -0.000189
v 12.993433 160.695294 -12.607328
v 12.484681 175.139252 -26.835955
v 12.478699 177.264025 -37.664589
v 12.945930 174.646565 -52.601269
v 25.000000 178.779530 50.000000
v 24.996141 173.953504 38.191349
v 25.162066 174.457790 25.023077
v 25.000393 178.756896 12.499742
v 25.000000 178.779530 0.000000
v 25.000000 178.767033 -12.500000
v 24.968740 178.779529 -25.358925
v 24.845947 178.377194 -37.418690
v 25.000000 178.779530 -50.000000
v 36.258804 175.217606 55.789253
v 37.520847 178.253502 37.499763
v 38.822166 171.144914 24.879843
v 37.500000 178.779530 12.500000
v 37.553841 169.030120 0.000000
v 37.500000 178.779530 -12.500000
v 37.062042 177.058728 -25.597260
v 37.545971 168.954460 -37.192924
v 37.500000 178.779530 -50.000000
vt 0.375000 0.000000
vt 0.406250 0.000000
vt 0.437500 0.000000
vt 0.468750 0.000000
vt 0.500000 0.000000
vt 0.531250 0.000000
vt 0.562500 0.000000
vt 0.593750 0.000000
vt 0.625000 0.000000
vt 0.375000 0.250000
vt 0.406250 0.250000
vt 0.437500 0.250000
vt 0.468750 0.250000
vt 0.500000 0.250000
vt 0.531250 0.250000
vt 0.562500 0.250000
vt 0.593750 0.250000
vt 0.625000 0.250000
vt 0.375000 0.281250
vt 0.406250 0.281250
vt 0.437500 0.281250
vt 0.468750 0.281250
vt 0.500000 0.281250
vt 0.531250 0.281250
vt 0.562500 0.281250
vt 0.593750 0.281250
vt 0.625000 0.281250
vt 0.375000 0.312500
vt 0.406250 0.312500
vt 0.437500 0.312500
vt 0.468750 0.312500
vt 0.500000 0.312500
vt 0.531250 0.312500
vt 0.562500 0.312500
vt 0.593750 0.312500
vt 0.625000 0.312500
vt 0.375000 0.343750
vt 0.406250 0.343750
vt 0.437500 0.343750
vt 0.468750 0.343750
vt 0.500000 0.343750
vt 0.531250 0.343750
vt 0.562500 0.343750
vt 0.593750 0.343750
vt 0.625000 0.343750
vt 0.375000 0.375000
vt 0.406250 0.375000
vt 0.437500 0.375000
vt 0.468750 0.375000
vt 0.500000 0.375000
vt 0.531250 0.375000
vt 0.562500 0.375000
vt 0.593750 0.375000
vt 0.625000 0.375000
vt 0.375000 0.406250
vt 0.406250 0.406250
vt 0.437500 0.406250
vt 0.468750 0.406250
vt 0.500000 0.406250
vt 0.531250 0.406250
vt 0.562500 0.406250
vt 0.593750 0.406250
vt 0.625000 0.406250
vt 0.375000 0.437500
vt 0.406250 0.437500
vt 0.437500 0.437500
vt 0.468750 0.437500
vt 0.500000 0.437500
vt 0.531250 0.437500
vt 0.562500 0.437500
vt 0.593750 0.437500
vt 0.625000 0.437500
vt 0.375000 0.468750
vt 0.406250 0.468750
vt 0.437500 0.468750
vt 0.468750 0.468750
vt 0.500000 0.468750
vt 0.531250 0.468750
vt 0.562500 0.468750
vt 0.593750 0.468750
vt 0.625000 0.468750
vt 0.375000 0.500000
vt 0.406250 0.500000
vt 0.437500 0.500000
vt 0.468750 0.500000
vt 0.500000 0.500000
vt 0.531250 0.500000
vt 0.562500 0.500000
vt 0.593750 0.500000
vt 0.625000 0.500000
vt 0.375000 0.750000
vt 0.406250 0.750000
vt 0.437500 0.750000
vt 0.468750 0.750000
vt 0.500000 0.750000
vt 0.531250 0.750000
vt 0.562500 0.750000
vt 0.593750 0.750000
vt 0.625000 0.750000
vt 0.375000 0.781250
vt 0.406250 0.781250
vt 0.437500 0.781250
vt 0.468750 0.781250
vt 0.500000 0.781250
vt 0.531250 0.781250
vt 0.562500 0.781250
vt 0.593750 0.781250
vt 0.625000 0.781250
vt 0.375000 0.812500
vt 0.406250 0.812500
vt 0.437500 0.812500
vt 0.468750 0.812500
vt 0.500000 0.812500
vt 0.531250 0.812500
vt 0.562500 0.812500
vt 0.593750 0.812500
vt 0.625000 0.812500
vt 0.375000 0.843750
vt 0.406250 0.843750
vt 0.437500 0.843750
vt 0.468750 0.843750
vt 0.500000 0.843750
vt 0.531250 0.843750
vt 0.562500 0.843750
vt 0.593750 0.843750
vt 0.625000 0.843750
vt 0.375000 0.875000
vt 0.406250 0.875000
vt 0.437500 0.875000
vt 0.468750 0.875000
vt 0.500000 0.875000
vt 0.531250 0.875000
vt 0.562500 0.875000
vt 0.593750 0.875000
vt 0.625000 0.875000
vt 0.375000 0.906250
vt 0.406250 0.906250
vt 0.437500 0.906250
vt 0.468750 0.906250
vt 0.500000 0.906250
vt 0.531250 0.906250
vt 0.562500 0.906250
vt 0.593750 0.906250
vt 0.625000 0.906250
vt 0.375000 0.937500
vt 0.406250 0.937500
vt 0.437500 0.937500
vt 0.468750 0.937500
vt 0.500000 0.937500
vt 0.531250 0.937500
vt 0.562500 0.937500
vt 0.593750 0.937500
vt 0.625000 0.937500
vt 0.375000 0.968750
vt 0.406250 0.968750
vt 0.437500 0.968750
vt 0.468750 0.968750
vt 0.500000 0.968750
vt 0.531250 0.968750
vt 0.562500 0.968750
vt 0.593750 0.968750
vt 0.625000 0.968750
vt 0.375000 1.000000
vt 0.406250 1.000000
vt 0.437500 1.000000
vt 0.468750 1.000000
vt 0.500000 1.000000
vt 0.531250 1.000000
vt 0.562500 1.000000
vt 0.593750 1.000000
vt 0.625000 1.000000
vt 0.875000 0.000000
vt 0.843750 0.000000
vt 0.812500 0.000000
vt 0.781250 0.000000
vt 0.750000 0.000000
vt 0.718750 0.000000
vt 0.687500 0.000000
vt 0.656250 0.000000
vt 0.875000 0.250000
vt 0.843750 0.250000
vt 0.812500 0.250000
vt 0.781250 0.250000
vt 0.750000 0.250000
vt 0.718750 0.250000
vt 0.687500 0.250000
vt 0.656250 0.250000
vt 0.125000 0.000000
vt 0.156250 0.000000
vt 0.187500 0.000000
vt 0.218750 0.000000
vt 0.250000 0.000000
vt 0.281250 0.000000
vt 0.312500 0.000000
vt 0.343750 0.000000
vt 0.125000 0.250000
vt 0.156250 0.250000
vt 0.187500 0.250000
vt 0.218750 0.250000
vt 0.250000 0.250000
vt 0.281250 0.250000
vt 0.312500 0.250000
vt 0.343750 0.250000
vn 0.991631 0.116243 -0.056171
vn 0.996509 0.075066 -0.036547
vn 0.996858 0.071206 -0.034707
vn 0.991631 0.116243 -0.056171
vn 0.999985 0.004866 -0.002708
vn 0.999985 0.004850 -0.002699
vn 0.996017 0.077807 0.043558
vn 0.996396 0.074021 0.041436
vn 0.990658 0.136367 0.000000
vn 0.990658 0.136367 0.000000
vn 0.996017 0.077796 -0.043566
vn 0.996396 0.074008 -0.041445
vn 0.999988 -0.004197 -0.002350
vn 0.999988 -0.004197 -0.002350
vn 0.999965 -0.008365 -0.000074
vn 0.999965 -0.008363 0.000074
vn 0.999955 -0.008306 0.004651
vn 0.999955 -0.008306 0.004651
vn -0.033463 0.998856 0.034166
vn -0.017362 0.999692 0.017726
vn -0.000171 0.999843 0.017747
vn 0.000636 0.999407 0.034441
vn 0.000000 1.000000 0.000000
vn 0.000000 1.000000 0.000000
vn 0.000000 1.000000 0.000000
vn 0.000000 1.000000 0.000000
vn 0.000000 1.000000 0.000000
vn 0.000000 1.000000 0.000000
vn 0.000000 1.000000 0.000000
vn 0.000000 1.000000 0.000000
vn 0.000000 1.000000 0.000000
vn 0.000000 1.000000 0.000000
vn 0.000000 1.000000 0.000000
vn 0.000000 1.000000 0.000000
vn 0.000000 1.000000 0.000000
vn 0.000000 1.000000 0.000000
vn 0.008601 0.999919 0.009380
vn 0.017675 0.999660 0.019155
vn 0.000000 1.000000 0.000000
vn 0.000000 1.000000 0.000000
vn 0.000000 1.000000 0.000000
vn 0.000000 1.000000 0.000000
vn 0.000000 1.000000 0.000000
vn 0.000000 1.000000 0.000000
vn 0.000000 1.000000 0.000000
vn 0.000000 1.000000 0.000789
vn -0.000000 0.999999 0.001577
vn 0.000000 1.000000 0.000000
vn 0.000000 1.000000 0.000000
vn 0.000000 1.000000 0.000000
vn 0.000000 1.000000 0.000000
vn 0.000000 1.000000 0.000000
vn -0.000138 1.000000 -0.000138
vn -0.000276 1.000000 -0.000276
vn 0.000395 1.000000 0.000395
vn 0.000789 0.999999 0.000789
vn 0.000000 1.000000 0.000000
vn 0.000000 1.000000 0.000000
vn 0.000000 1.000000 0.000000
vn 0.000000 1.000000 0.000000
vn 0.000000 1.000000 0.000000
vn -0.000238 1.000000 -0.000514
vn -0.000476 0.999999 -0.001029
vn 0.000000 1.000000 0.000000
vn 0.000000 1.000000 0.000000
vn 0.000000 1.000000 0.000000
vn 0.000000 1.000000 0.000000
vn 0.000000 1.000000 0.000000
vn 0.000000 1.000000 0.000000
vn 0.000000 1.000000 0.000000
vn 0.000138 1.000000 -0.000614
vn 0.000276 0.999999 -0.001228
vn 0.000000 1.000000 0.000000
vn 0.000000 1.000000 0.000000
vn 0.000000 1.000000 0.000000
vn 0.000000 1.000000 0.000000
vn 0.000000 1.000000 0.000000
vn 0.000000 1.000000 0.000000
vn 0.000000 1.000000 0.000000
vn 0.000238 1.000000 -0.000238
vn 0.000476 1.000000 -0.000476
vn -0.000379 1.000000 0.000379
vn -0.000759 0.999999 0.000759
vn -0.000002 1.000000 -0.000002
vn -0.000003 1.000000 -0.000000
vn -0.000002 1.000000 0.000002
vn -0.000149 1.000000 -0.000149
vn -0.000299 1.000000 -0.000000
vn -0.000149 1.000000 0.000149
vn 0.000000 1.000000 0.000000
vn -0.000759 0.999999 0.000759
vn -0.001515 0.999998 0.001515
vn -0.000003 1.000000 -0.000003
vn -0.000006 1.000000 -0.000000
vn -0.000003 1.000000 0.000003
vn -0.000299 1.000000 -0.000299
vn -0.000597 1.000000 -0.000000
vn -0.000299 1.000000 0.000299
vn 0.000000 1.000000 0.000000
vn -0.987573 0.151327 -0.042417
vn -0.993100 0.112656 -0.032569
vn -0.992698 0.115914 -0.033399
vn -0.987573 0.151327 -0.042417
vn -0.998339 0.057590 -0.001826
vn -0.998339 0.057580 -0.001763
vn -0.998800 0.048853 -0.003563
vn -0.998797 0.048915 -0.003356
vn -0.997715 0.066224 0.013366
vn -0.997703 0.066367 0.013593
vn -0.987349 0.154049 0.037557
vn -0.986299 0.160927 0.036282
vn -0.981436 0.191514 -0.010300
vn -0.981401 0.191735 -0.009501
vn -0.991043 0.126816 -0.041862
vn -0.990030 0.134120 -0.043042
vn -0.998119 0.053485 -0.029951
vn -0.998119 0.053485 -0.029951
vn -0.167594 -0.948894 0.267418
vn -0.357222 -0.933329 0.035911
vn -0.136592 -0.985236 0.103212
vn -0.041619 -0.899756 0.434404
vn -0.422504 -0.895509 -0.139834
vn -0.208260 -0.966422 -0.150521
vn -0.206374 -0.972860 -0.104657
vn -0.142922 -0.976110 -0.163655
vn -0.041721 -0.997028 -0.064768
vn -0.029822 -0.991236 -0.128696
vn 0.135571 -0.987089 0.085302
vn 0.071420 -0.996649 0.039869
vn 0.127738 -0.988313 0.083193
vn 0.043980 -0.986167 0.159812
vn -0.060036 -0.993719 -0.094440
vn -0.067916 -0.996296 -0.052741
vn -0.160663 -0.959511 -0.231356
vn -0.106713 -0.935341 -0.337267
vn 0.144157 -0.973044 0.180013
vn 0.099727 -0.875729 0.472391
vn 0.099515 -0.993182 -0.060717
vn -0.041889 -0.985983 -0.161504
vn -0.056228 -0.974154 -0.218773
vn -0.056650 -0.998009 0.027722
vn -0.065394 -0.976175 0.206898
vn -0.038657 -0.999159 -0.013654
vn -0.032712 -0.947111 -0.319235
vn 0.012088 -0.994238 0.106515
vn -0.006759 -0.908184 0.418516
vn 0.128782 -0.991335 -0.025896
vn 0.136781 -0.988702 -0.061322
vn -0.022448 -0.981009 -0.192662
vn -0.067000 -0.997080 0.036650
vn 0.050986 -0.993645 0.100353
vn 0.064808 -0.996913 0.044327
vn -0.006910 -0.998789 0.048720
vn -0.063848 -0.995826 0.065231
vn -0.068444 -0.934975 0.348049
vn -0.003538 -0.987423 -0.158061
vn 0.108412 -0.993000 -0.046889
vn -0.084923 -0.983905 0.157222
vn -0.340689 -0.940171 0.003110
vn -0.181938 -0.964340 -0.192217
vn 0.030688 -0.993019 0.113891
vn 0.013296 -0.962599 0.270606
vn 0.047444 -0.994620 0.092092
vn 0.068612 -0.982857 0.171129
vn -0.008841 -0.984768 -0.173648
vn -0.000209 -0.988203 -0.153153
vn 0.073248 -0.932153 0.354579
vn 0.053988 -0.998542 -0.000173
vn 0.015063 -0.941350 -0.337096
vn 0.057820 -0.995299 0.077695
vn 0.100853 -0.972955 0.207815
vn 0.033803 -0.990413 0.133938
vn 0.053511 -0.995627 0.076572
vn -0.007459 -0.992212 -0.124340
vn -0.101699 -0.986978 -0.124629
vn -0.003264 -0.984099 0.177589
vn 0.295375 -0.954270 -0.046064
vn 0.180589 -0.980814 -0.073429
vn -0.100701 -0.994767 -0.017285
vn -0.060164 -0.988403 -0.139430
vn 0.075139 -0.995212 0.062507
vn -0.003200 -0.995520 -0.094495
vn 0.133033 -0.989354 -0.058993
vn 0.012170 -0.999361 0.033611
vn -0.030551 -0.999533 -0.000092
vn -0.022601 -0.981346 -0.190915
vn -0.001041 -0.978814 0.204747
vn 0.011128 -0.999537 -0.028320
vn 0.008214 -0.930191 -0.366984
vn 0.112237 -0.993518 -0.018022
vn -0.017429 -0.980275 -0.196870
vn 0.313363 -0.949575 -0.010567
vn 0.279004 -0.950287 0.138247
vn 0.260554 -0.965459 0.000000
vn 0.168167 -0.957626 -0.233822
vn 0.233802 -0.954081 0.187257
vn 0.388025 -0.921245 -0.027279
vn 0.344781 -0.876153 -0.336872
vn 0.000000 0.000000 -1.000000
vn 0.000000 0.000000 -1.000000
vn 0.000000 0.000000 -1.000000
vn 0.000000 0.000000 -1.000000
vn -0.038559 0.067953 -0.996943
vn -0.035976 0.063401 -0.997339
vn -0.047239 0.192419 -0.980175
vn -0.049444 0.182288 -0.982001
vn -0.008477 0.239921 -0.970756
vn -0.009599 0.239572 -0.970831
vn 0.039636 0.214053 -0.976018
vn 0.043770 0.206972 -0.977367
vn 0.049141 0.087752 -0.994930
vn 0.045490 0.081233 -0.995656
vn 0.000000 0.000000 -1.000000
vn 0.000000 0.000000 -1.000000
vn 0.000000 0.000000 -1.000000
vn 0.000000 0.000000 -1.000000
vn 0.082533 0.143753 0.986166
vn 0.040199 0.102288 0.993942
vn 0.037245 0.099385 0.994352
vn 0.082533 0.143753 0.986166
vn -0.001008 0.042150 0.999111
vn -0.001041 0.042147 0.999111
vn 0.011664 0.024708 0.999627
vn 0.011514 0.024378 0.999637
vn -0.052711 0.095126 0.994069
vn -0.048504 0.088137 0.994927
vn 0.000021 0.151041 0.988528
vn -0.000018 0.151041 0.988528
vn -0.068105 0.200354 0.977354
vn -0.067428 0.200145 0.977443
vn 0.012060 0.290071 0.956929
vn 0.007324 0.289543 0.957137
vn 0.161921 0.303363 0.939017
vn 0.161921 0.303363 0.939017
s 1
g pCube1
usemtl anisotropic1SG
f 1/1/1 2/2/2 11/11/3 10/10/4
f 2/2/2 3/3/5 12/12/6 11/11/3
f 3/3/5 4/4/7 13/13/8 12/12/6
f 4/4/7 5/5/9 14/14/10 13/13/8
f 5/5/9 6/6/11 15/15/12 14/14/10
f 6/6/11 7/7/13 16/16/14 15/15/12
f 7/7/13 8/8/15 17/17/16 16/16/14
f 8/8/15 9/9/17 18/18/18 17/17/16
s 2
f 10/10/19 11/11/20 20/20/21 19/19/22
f 11/11/20 12/12/23 21/21/24 20/20/21
f 12/12/23 13/13/25 22/22/26 21/21/24
f 13/13/25 14/14/27 23/23/28 22/22/26
f 14/14/27 15/15/29 24/24/30 23/23/28
f 15/15/29 16/16/31 25/25/32 24/24/30
f 16/16/31 17/17/33 26/26/34 25/25/32
f 17/17/33 18/18/35 27/27/36 26/26/34
f 19/19/22 20/20/21 29/29/37 28/28/38
f 20/20/21 21/21/24 30/30/39 29/29/37
f 21/21/24 22/22/26 31/31/40 30/30/39
f 22/22/26 23/23/28 32/32/41 31/31/40
f 23/23/28 24/24/30 33/33/42 32/32/41
f 24/24/30 25/25/32 34/34/43 33/33/42
f 25/25/32 26/26/34 35/35/44 34/34/43
f 26/26/34 27/27/36 36/36/45 35/35/44
f 28/28/38 29/29/37 38/38/46 37/37/47
f 29/29/37 30/30/39 39/39/48 38/38/46
f 30/30/39 31/31/40 40/40/49 39/39/48
f 31/31/40 32/32/41 41/41/50 40/40/49
f 32/32/41 33/33/42 42/42/51 41/41/50
f 33/33/42 34/34/43 43/43/52 42/42/51
f 34/34/43 35/35/44 44/44/53 43/43/52
f 35/35/44 36/36/45 45/45/54 44/44/53
f 37/37/47 38/38/46 47/47/55 46/46/56
f 38/38/46 39/39/48 48/48/57 47/47/55
f 39/39/48 40/40/49 49/49/58 48/48/57
f 40/40/49 41/41/50 50/50/59 49/49/58
f 41/41/50 42/42/51 51/51/60 50/50/59
f 42/42/51 43/43/52 52/52/61 51/51/60
f 43/43/52 44/44/53 53/53/62 52/52/61
f 44/44/53 45/45/54 54/54/63 53/53/62
f 46/46/56 47/47/55 56/56/64 55/55/65
f 47/47/55 48/48/57 57/57/66 56/56/64
f 48/48/57 49/49/58 58/58/67 57/57/66
f 49/49/58 50/50/59 59/59/68 58/58/67
f 50/50/59 51/51/60 60/60/69 59/59/68
f 51/51/60 52/52/61 61/61/70 60/60/69
f 52/52/61 53/53/62 62/62/71 61/61/70
f 53/53/62 54/54/63 63/63/72 62/62/71
f 55/55/65 56/56/64 65/65/73 64/64/74
f 56/56/64 57/57/66 66/66/75 65/65/73
f 57/57/66 58/58/67 67/67/76 66/66/75
f 58/58/67 59/59/68 68/68/77 67/67/76
f 59/59/68 60/60/69 69/69/78 68/68/77
f 60/60/69 61/61/70 70/70/79 69/69/78
f 61/61/70 62/62/71 71/71/80 70/70/79
f 62/62/71 63/63/72 72/72/81 71/71/80
f 64/64/74 65/65/73 74/74/82 73/73/83
f 65/65/73 66/66/75 75/75/84 74/74/82
f 66/66/75 67/67/76 76/76/85 75/75/84
f 67/67/76 68/68/77 77/77/86 76/76/85
f 68/68/77 69/69/78 78/78/87 77/77/86
f 69/69/78 70/70/79 79/79/88 78/78/87
f 70/70/79 71/71/80 80/80/89 79/79/88
f 71/71/80 72/72/81 81/81/90 80/80/89
f 73/73/83 74/74/82 83/83/91 82/82/92
f 74/74/82 75/75/84 84/84/93 83/83/91
f 75/75/84 76/76/85 85/85/94 84/84/93
f 76/76/85 77/77/86 86/86/95 85/85/94
f 77/77/86 78/78/87 87/87/96 86/86/95
f 78/78/87 79/79/88 88/88/97 87/87/96
f 79/79/88 80/80/89 89/89/98 88/88/97
f 80/80/89 81/81/90 90/90/99 89/89/98
s 3
f 82/82/100 83/83/101 92/92/102 91/91/103
f 83/83/101 84/84/104 93/93/105 92/92/102
f 84/84/104 85/85/106 94/94/107 93/93/105
f 85/85/106 86/86/108 95/95/109 94/94/107
f 86/86/108 87/87/110 96/96/111 95/95/109
f 87/87/110 88/88/112 97/97/113 96/96/111
f 88/88/112 89/89/114 98/98/115 97/97/113
f 89/89/114 90/90/116 99/99/117 98/98/115
s 4
f 91/91/118 92/92/119 101/101/120 100/100/121
f 92/92/119 93/93/122 102/102/123 101/101/120
f 93/93/122 94/94/124 103/103/125 102/102/123
f 94/94/124 95/95/126 104/104/127 103/103/125
f 95/95/126 96/96/128 105/105/129 104/104/127
f 96/96/128 97/97/130 106/106/131 105/105/129
f 97/97/130 98/98/132 107/107/133 106/106/131
f 98/98/132 99/99/134 108/108/135 107/107/133
f 100/100/121 101/101/120 110/110/136 109/109/137
f 101/101/120 102/102/123 111/111/138 110/110/136
f 102/102/123 103/103/125 112/112/139 111/111/138
f 103/103/125 104/104/127 113/113/140 112/112/139
f 104/104/127 105/105/129 114/114/141 113/113/140
f 105/105/129 106/106/131 115/115/142 114/114/141
f 106/106/131 107/107/133 116/116/143 115/115/142
f 107/107/133 108/108/135 117/117/144 116/116/143
f 109/109/137 110/110/136 119/119/145 118/118/146
f 110/110/136 111/111/138 120/120/147 119/119/145
f 111/111/138 112/112/139 121/121/148 120/120/147
f 112/112/139 113/113/140 122/122/149 121/121/148
f 113/113/140 114/114/141 123/123/150 122/122/149
f 114/114/141 115/115/142 124/124/151 123/123/150
f 115/115/142 116/116/143 125/125/152 124/124/151
f 116/116/143 117/117/144 126/126/153 125/125/152
f 118/118/146 119/119/145 128/128/154 127/127/155
f 119/119/145 120/120/147 129/129/156 128/128/154
f 120/120/147 121/121/148 130/130/157 129/129/156
f 121/121/148 122/122/149 131/131/158 130/130/157
f 122/122/149 123/123/150 132/132/159 131/131/158
f 123/123/150 124/124/151 133/133/160 132/132/159
f 124/124/151 125/125/152 134/134/161 133/133/160
f 125/125/152 126/126/153 135/135/162 134/134/161
f 127/127/155 128/128/154 137/137/163 136/136/164
f 128/128/154 129/129/156 138/138/165 137/137/163
f 129/129/156 130/130/157 139/139/166 138/138/165
f 130/130/157 131/131/158 140/140/167 139/139/166
f 131/131/158 132/132/159 141/141/168 140/140/167
f 132/132/159 133/133/160 142/142/169 141/141/168
f 133/133/160 134/134/161 143/143/170 142/142/169
f 134/134/161 135/135/162 144/144/171 143/143/170
f 136/136/164 137/137/163 146/146/172 145/145/173
f 137/137/163 138/138/165 147/147/174 146/146/172
f 138/138/165 139/139/166 148/148/175 147/147/174
f 139/139/166 140/140/167 149/149/176 148/148/175
f 140/140/167 141/141/168 150/150/177 149/149/176
f 141/141/168 142/142/169 151/151/178 150/150/177
f 142/142/169 143/143/170 152/152/179 151/151/178
f 143/143/170 144/144/171 153/153/180 152/152/179
f 145/145/173 146/146/172 155/155/181 154/154/182
f 146/146/172 147/147/174 156/156/183 155/155/181
f 147/147/174 148/148/175 157/157/184 156/156/183
f 148/148/175 149/149/176 158/158/185 157/157/184
f 149/149/176 150/150/177 159/159/186 158/158/185
f 150/150/177 151/151/178 160/160/187 159/159/186
f 151/151/178 152/152/179 161/161/188 160/160/187
f 152/152/179 153/153/180 162/162/189 161/161/188
f 154/154/182 155/155/181 2/164/190 1/163/191
f 155/155/181 156/156/183 3/165/192 2/164/190
f 156/156/183 157/157/184 4/166/193 3/165/192
f 157/157/184 158/158/185 5/167/194 4/166/193
f 158/158/185 159/159/186 6/168/195 5/167/194
f 159/159/186 160/160/187 7/169/196 6/168/195
f 160/160/187 161/161/188 8/170/197 7/169/196
f 161/161/188 162/162/189 9/171/198 8/170/197
s 5
f 108/173/199 99/172/200 90/180/201 81/181/202
f 117/174/203 108/173/199 81/181/202 72/182/204
f 126/175/205 117/174/203 72/182/204 63/183/206
f 135/176/207 126/175/205 63/183/206 54/184/208
f 144/177/209 135/176/207 54/184/208 45/185/210
f 153/178/211 144/177/209 45/185/210 36/186/212
f 162/179/213 153/178/211 36/186/212 27/187/214
f 9/9/215 162/179/213 27/187/214 18/18/216
s 6
f 91/188/217 100/189/218 73/197/219 82/196/220
f 100/189/218 109/190/221 64/198/222 73/197/219
f 109/190/221 118/191/223 55/199/224 64/198/222
f 118/191/223 127/192/225 46/200/226 55/199/224
f 127/192/225 136/193/227 37/201/228 46/200/226
f 136/193/227 145/194/229 28/202/230 37/201/228
f 145/194/229 154/195/231 19/203/232 28/202/230
f 154/195/231 1/1/233 10/10/234 19/203/232
